<?xml version="1.0" encoding="UTF-8" standalone="no"?>
<!DOCTYPE svg PUBLIC "-//W3C//DTD SVG 1.1//EN"
 "http://www.w3.org/Graphics/SVG/1.1/DTD/svg11.dtd">
<!-- Generated by graphviz version 2.44.1 (20200629.0846)
 -->
<!-- Title: g Pages: 1 -->
<svg width="713pt" height="625pt"
 viewBox="0.00 0.00 713.00 624.80" xmlns="http://www.w3.org/2000/svg" xmlns:xlink="http://www.w3.org/1999/xlink">
<g id="graph0" class="graph" transform="scale(1 1) rotate(0) translate(4 620.8)">
<title>g</title>
<polygon fill="white" stroke="transparent" points="-4,4 -4,-620.8 709,-620.8 709,4 -4,4"/>
<g id="clust1" class="cluster">
<title>cluster_15833472</title>
<polygon fill="#ececec" stroke="black" points="8,-8 8,-608.8 697,-608.8 697,-8 8,-8"/>
<text text-anchor="middle" x="38.16" y="-592.2" font-family="Times New Roman,serif" font-size="14.00">blueocn</text>
</g>
<!-- Main15833472 -->
<g id="node1" class="node">
<title>Main15833472</title>
<polygon fill="#ffffff" stroke="transparent" points="333,-576 201,-576 201,-526 333,-526 333,-576"/>
<text text-anchor="start" x="206" y="-558.4" font-family="Times New Roman,serif" font-size="14.00">(C)Main</text>
<text text-anchor="start" x="205.52" y="-534.4" font-family="Times New Roman,serif" font-size="14.00">+ main(args: String[])</text>
<polygon fill="black" stroke="black" points="201,-551 201,-551 333,-551 333,-551 201,-551"/>
<polygon fill="none" stroke="black" points="201,-526 201,-576 333,-576 333,-526 201,-526"/>
</g>
<!-- Mediator15833472 -->
<g id="node2" class="node">
<title>Mediator15833472</title>
<polygon fill="#ffffff" stroke="transparent" points="396,-473.2 138,-473.2 138,-327.2 396,-327.2 396,-473.2"/>
<text text-anchor="start" x="143" y="-455.6" font-family="Times New Roman,serif" font-size="14.00">(C)Mediator</text>
<text text-anchor="start" x="143" y="-431.6" font-family="Times New Roman,serif" font-size="14.00">&#45; &#160;&#160;plane: Plane [0..1]</text>
<text text-anchor="start" x="143" y="-407.6" font-family="Times New Roman,serif" font-size="14.00">&#45; &#160;&#160;planesInFlight: PlanesInFlight [0..1]</text>
<text text-anchor="start" x="142.78" y="-383.6" font-family="Times New Roman,serif" font-size="14.00">&#45; &#160;&#160;planesOnGround: PlanesOnGround [0..1]</text>
<text text-anchor="start" x="143" y="-359.6" font-family="Times New Roman,serif" font-size="14.00">&#45; &#160;&#160;runway: Runway [0..1]</text>
<text text-anchor="start" x="143" y="-335.6" font-family="Times New Roman,serif" font-size="14.00">+ takeOff()</text>
<polygon fill="black" stroke="black" points="138,-448.2 138,-448.2 396,-448.2 396,-448.2 138,-448.2"/>
<polygon fill="black" stroke="black" points="138,-352.2 138,-352.2 396,-352.2 396,-352.2 138,-352.2"/>
<polygon fill="none" stroke="black" points="138,-327.2 138,-473.2 396,-473.2 396,-327.2 138,-327.2"/>
</g>
<!-- Main15833472&#45;&gt;Mediator15833472 -->
<g id="edge1" class="edge">
<title>Main15833472&#45;&gt;Mediator15833472</title>
<path fill="none" stroke="black" d="M267,-525.76C267,-513.94 267,-498.95 267,-483.51"/>
<polygon fill="black" stroke="black" points="270.5,-483.32 267,-473.32 263.5,-483.32 270.5,-483.32"/>
<text text-anchor="middle" x="321.47" y="-495.4" font-family="Times New Roman,serif" font-size="14.00">main() &#45;&gt; takeOff()</text>
</g>
<!-- Plane15833472 -->
<g id="node3" class="node">
<title>Plane15833472</title>
<polygon fill="#ffffff" stroke="transparent" points="264,-90 106,-90 106,-16 264,-16 264,-90"/>
<text text-anchor="start" x="111" y="-72.4" font-family="Times New Roman,serif" font-size="14.00">(C)Plane</text>
<text text-anchor="start" x="111" y="-48.4" font-family="Times New Roman,serif" font-size="14.00">&#45; &#160;&#160;id: int [1]</text>
<text text-anchor="start" x="110.94" y="-24.4" font-family="Times New Roman,serif" font-size="14.00">&#45; &#160;&#160;isInTheAir: boolean [1]</text>
<polygon fill="black" stroke="black" points="106,-65 106,-65 264,-65 264,-65 106,-65"/>
<polygon fill="none" stroke="black" points="106,-16 106,-90 264,-90 264,-16 106,-16"/>
</g>
<!-- Mediator15833472&#45;&gt;Plane15833472 -->
<g id="edge2" class="edge">
<title>Mediator15833472&#45;&gt;Plane15833472</title>
<path fill="none" stroke="black" d="M153.38,-327.16C98.21,-292.18 43.68,-257.6 43.68,-257.6 43.68,-257.6 43.68,-159.6 43.68,-159.6 43.68,-159.6 89.13,-125.64 128.47,-96.24"/>
<polygon fill="black" stroke="black" points="130.84,-98.84 136.76,-90.05 126.65,-93.23 130.84,-98.84"/>
<text text-anchor="middle" x="58.16" y="-212.8" font-family="Times New Roman,serif" font-size="14.00">plane</text>
<text text-anchor="middle" x="58.16" y="-196" font-family="Times New Roman,serif" font-size="14.00">[0..1]</text>
</g>
<!-- PlanesInFlight15833472 -->
<g id="node4" class="node">
<title>PlanesInFlight15833472</title>
<polygon fill="#ffffff" stroke="transparent" points="287.5,-257.6 82.5,-257.6 82.5,-159.6 287.5,-159.6 287.5,-257.6"/>
<text text-anchor="start" x="88" y="-240" font-family="Times New Roman,serif" font-size="14.00">(C)PlanesInFlight</text>
<text text-anchor="start" x="87.61" y="-216" font-family="Times New Roman,serif" font-size="14.00"># &#160;&#160;planes: ArrayList&lt;Plane&gt; [0..*]</text>
<text text-anchor="start" x="88" y="-192" font-family="Times New Roman,serif" font-size="14.00">+ addPlane(plane: Plane)</text>
<text text-anchor="start" x="88" y="-168" font-family="Times New Roman,serif" font-size="14.00">+ removePlane(plane: Plane)</text>
<polygon fill="black" stroke="black" points="83,-232.6 83,-232.6 288,-232.6 288,-232.6 83,-232.6"/>
<polygon fill="black" stroke="black" points="83,-208.6 83,-208.6 288,-208.6 288,-208.6 83,-208.6"/>
<polygon fill="none" stroke="black" points="82.5,-159.6 82.5,-257.6 287.5,-257.6 287.5,-159.6 82.5,-159.6"/>
</g>
<!-- Mediator15833472&#45;&gt;PlanesInFlight15833472 -->
<g id="edge3" class="edge">
<title>Mediator15833472&#45;&gt;PlanesInFlight15833472</title>
<path fill="none" stroke="black" d="M235.77,-326.98C227.21,-307.19 218.05,-286.02 209.9,-267.17"/>
<polygon fill="black" stroke="black" points="213.04,-265.63 205.86,-257.84 206.62,-268.41 213.04,-265.63"/>
<text text-anchor="middle" x="266.44" y="-296.6" font-family="Times New Roman,serif" font-size="14.00">planesInFlight</text>
<text text-anchor="middle" x="266.44" y="-279.8" font-family="Times New Roman,serif" font-size="14.00">[0..1]</text>
</g>
<!-- PlanesOnGround15833472 -->
<g id="node5" class="node">
<title>PlanesOnGround15833472</title>
<polygon fill="#ffffff" stroke="transparent" points="510.5,-257.6 305.5,-257.6 305.5,-159.6 510.5,-159.6 510.5,-257.6"/>
<text text-anchor="start" x="311" y="-240" font-family="Times New Roman,serif" font-size="14.00">(C)PlanesOnGround</text>
<text text-anchor="start" x="310.61" y="-216" font-family="Times New Roman,serif" font-size="14.00"># &#160;&#160;planes: ArrayList&lt;Plane&gt; [0..*]</text>
<text text-anchor="start" x="311" y="-192" font-family="Times New Roman,serif" font-size="14.00">+ addPlane(plane: Plane)</text>
<text text-anchor="start" x="311" y="-168" font-family="Times New Roman,serif" font-size="14.00">+ removePlane(plane: Plane)</text>
<polygon fill="black" stroke="black" points="306,-232.6 306,-232.6 511,-232.6 511,-232.6 306,-232.6"/>
<polygon fill="black" stroke="black" points="306,-208.6 306,-208.6 511,-208.6 511,-208.6 306,-208.6"/>
<polygon fill="none" stroke="black" points="305.5,-159.6 305.5,-257.6 510.5,-257.6 510.5,-159.6 305.5,-159.6"/>
</g>
<!-- Mediator15833472&#45;&gt;PlanesOnGround15833472 -->
<g id="edge4" class="edge">
<title>Mediator15833472&#45;&gt;PlanesOnGround15833472</title>
<path fill="none" stroke="black" d="M320.71,-326.98C335.76,-306.74 351.89,-285.05 366.14,-265.88"/>
<polygon fill="black" stroke="black" points="368.97,-267.95 372.13,-257.84 363.35,-263.77 368.97,-267.95"/>
<text text-anchor="middle" x="405.82" y="-296.6" font-family="Times New Roman,serif" font-size="14.00">planesOnGround</text>
<text text-anchor="middle" x="405.82" y="-279.8" font-family="Times New Roman,serif" font-size="14.00">[0..1]</text>
</g>
<!-- Runway15833472 -->
<g id="node6" class="node">
<title>Runway15833472</title>
<polygon fill="#ffffff" stroke="transparent" points="689,-233.6 529,-233.6 529,-183.6 689,-183.6 689,-233.6"/>
<text text-anchor="start" x="534" y="-216" font-family="Times New Roman,serif" font-size="14.00">(C)Runway</text>
<text text-anchor="start" x="533.78" y="-192" font-family="Times New Roman,serif" font-size="14.00">&#45; &#160;&#160;isAvailable: boolean [1]</text>
<polygon fill="black" stroke="black" points="529,-208.6 529,-208.6 689,-208.6 689,-208.6 529,-208.6"/>
<polygon fill="none" stroke="black" points="529,-183.6 529,-233.6 689,-233.6 689,-183.6 529,-183.6"/>
</g>
<!-- Mediator15833472&#45;&gt;Runway15833472 -->
<g id="edge5" class="edge">
<title>Mediator15833472&#45;&gt;Runway15833472</title>
<path fill="none" stroke="black" d="M396.25,-338.3C430.44,-322.19 458,-309.2 458,-309.2 458,-309.2 519.57,-268.59 564.08,-239.23"/>
<polygon fill="black" stroke="black" points="566.03,-242.14 572.45,-233.71 562.17,-236.29 566.03,-242.14"/>
<text text-anchor="middle" x="526.99" y="-296.6" font-family="Times New Roman,serif" font-size="14.00">runway</text>
<text text-anchor="middle" x="526.99" y="-279.8" font-family="Times New Roman,serif" font-size="14.00">[0..1]</text>
</g>
<!-- PlanesInFlight15833472&#45;&gt;Plane15833472 -->
<g id="edge6" class="edge">
<title>PlanesInFlight15833472&#45;&gt;Plane15833472</title>
<path fill="none" stroke="black" d="M185,-159.42C185,-140.57 185,-119.03 185,-100.35"/>
<polygon fill="black" stroke="black" points="188.5,-100.31 185,-90.31 181.5,-100.31 188.5,-100.31"/>
<text text-anchor="middle" x="202.88" y="-129" font-family="Times New Roman,serif" font-size="14.00">planes</text>
<text text-anchor="middle" x="202.88" y="-112.2" font-family="Times New Roman,serif" font-size="14.00">[0..*]</text>
</g>
<!-- PlanesOnGround15833472&#45;&gt;Plane15833472 -->
<g id="edge7" class="edge">
<title>PlanesOnGround15833472&#45;&gt;Plane15833472</title>
<path fill="none" stroke="black" d="M338.05,-159.42C308.41,-139 274.19,-115.43 245.64,-95.77"/>
<polygon fill="black" stroke="black" points="247.58,-92.85 237.36,-90.06 243.61,-98.62 247.58,-92.85"/>
<text text-anchor="middle" x="326.88" y="-129" font-family="Times New Roman,serif" font-size="14.00">planes</text>
<text text-anchor="middle" x="326.88" y="-112.2" font-family="Times New Roman,serif" font-size="14.00">[0..*]</text>
</g>
</g>
</svg>
